<svg xmlns="http://www.w3.org/2000/svg" width="295" height="295" style="">
  <rect id="backgroundrect" width="100%" height="100%" x="0" y="0" fill="none" stroke="none" style="" class=""/>


  <g class="currentLayer" style=""><title>Layer 1</title>
    <path id="Selection #1" fill="none" stroke="black" stroke-width="1"
          d="M138.5,0.5 C138.5,0.5 191.5,0.5 191.5,0.5 C191.5,0.5 191.5,33.5 191.5,33.5 C191.5,33.5 225.5,33.5 225.5,33.5 C225.5,33.5 225.5,51.5 225.5,51.5 C225.5,51.5 173.5,51.5 173.5,51.5 C173.5,51.5 173.5,18.5 173.5,18.5 C173.5,18.5 138.5,18.5 138.5,18.5 C138.5,18.5 138.5,0.5 138.5,0.5 zM105.5,6.5 C105.5,6.5 122.5,6.5 122.5,6.5 C122.5,6.5 122.5,40.5 122.5,40.5 C122.5,40.5 156.5,40.5 156.5,40.5 C156.5,40.5 156.5,94.5 156.5,94.5 C156.5,94.5 138.5,94.5 138.5,94.5 C138.5,94.5 138.5,57.5 138.5,57.5 C138.5,57.5 105.5,57.5 105.5,57.5 C105.5,57.5 105.5,6.5 105.5,6.5 zM33.5,33.5 C33.5,33.5 86.5,33.5 86.5,33.5 C86.5,33.5 86.5,76.5 86.5,76.5 C86.5,76.5 120.5,76.5 120.5,76.5 C120.5,76.5 120.5,91.5 120.5,91.5 C120.5,91.5 68.5,91.5 68.5,91.5 C68.5,91.5 68.5,51.5 68.5,51.5 C68.5,51.5 33.5,51.5 33.5,51.5 C33.5,51.5 33.5,33.5 33.5,33.5 zM243.5,33.5 C243.5,33.5 261.5,33.5 261.5,33.5 C261.5,33.5 261.5,86.5 261.5,86.5 C261.5,86.5 227.5,86.5 227.5,86.5 C227.5,86.5 227.5,120.5 227.5,120.5 C227.5,120.5 209.5,120.5 209.5,120.5 C209.5,120.5 209.5,68.5 209.5,68.5 C209.5,68.5 243.5,68.5 243.5,68.5 C243.5,68.5 243.5,33.5 243.5,33.5 zM35.5,70.5 C35.5,70.5 51.5,70.5 51.5,70.5 C51.5,70.5 51.5,122.5 51.5,122.5 C51.5,122.5 18.5,122.5 18.5,122.5 C18.5,122.5 18.5,157.5 18.5,157.5 C18.5,157.5 0.5,157.5 0.5,157.5 C0.5,157.5 0.5,104.5 0.5,104.5 C0.5,104.5 35.5,104.5 35.5,104.5 C35.5,104.5 35.5,70.5 35.5,70.5 zM172.5,70.5 C172.5,70.5 190.5,70.5 190.5,70.5 C190.5,70.5 190.5,124.5 190.5,124.5 C190.5,124.5 157.5,124.5 157.5,124.5 C157.5,124.5 157.5,147.5 157.5,147.5 C157.5,147.5 139.5,147.5 139.5,147.5 C139.5,147.5 139.5,106.5 139.5,106.5 C139.5,106.5 172.5,106.5 172.5,106.5 C172.5,106.5 172.5,70.5 172.5,70.5 zM242.5,104.5 C242.5,104.5 288.5,104.5 288.5,104.5 C288.5,104.5 288.5,123.5 288.5,123.5 C288.5,123.5 259.5,123.5 259.5,123.5 C259.5,123.5 259.5,155.5 259.5,155.5 C259.5,155.5 201.5,155.5 201.5,155.5 C201.5,155.5 201.5,137.5 201.5,137.5 C201.5,137.5 242.5,137.5 242.5,137.5 C242.5,137.5 242.5,104.5 242.5,104.5 zM71.5,106.5 C71.5,106.5 125.5,106.5 125.5,106.5 C125.5,106.5 125.5,146.5 125.5,146.5 C125.5,146.5 107.5,146.5 107.5,146.5 C107.5,146.5 107.5,122.5 107.5,122.5 C107.5,122.5 71.5,122.5 71.5,122.5 C71.5,122.5 71.5,106.5 71.5,106.5 zM276.5,138.5 C276.5,138.5 294.5,138.5 294.5,138.5 C294.5,138.5 294.5,191.5 294.5,191.5 C294.5,191.5 261.5,191.5 261.5,191.5 C261.5,191.5 261.5,225.5 261.5,225.5 C261.5,225.5 243.5,225.5 243.5,225.5 C243.5,225.5 243.5,173.5 243.5,173.5 C243.5,173.5 276.5,173.5 276.5,173.5 C276.5,173.5 276.5,138.5 276.5,138.5 zM35.5,139.5 C35.5,139.5 92.5,139.5 92.5,139.5 C92.5,139.5 92.5,158.5 92.5,158.5 C92.5,158.5 54.5,158.5 54.5,158.5 C54.5,158.5 54.5,190.5 54.5,190.5 C54.5,190.5 7.5,190.5 7.5,190.5 C7.5,190.5 7.5,173.5 7.5,173.5 C7.5,173.5 35.5,173.5 35.5,173.5 C35.5,173.5 35.5,139.5 35.5,139.5 zM172.5,147.5 C172.5,147.5 187.5,147.5 187.5,147.5 C187.5,147.5 187.5,171.5 187.5,171.5 C187.5,171.5 224.5,171.5 224.5,171.5 C224.5,171.5 224.5,188.5 224.5,188.5 C224.5,188.5 172.5,188.5 172.5,188.5 C172.5,188.5 172.5,147.5 172.5,147.5 zM105.5,165.5 C105.5,165.5 155.5,165.5 155.5,165.5 C155.5,165.5 155.5,183.5 155.5,183.5 C155.5,183.5 123.5,183.5 123.5,183.5 C123.5,183.5 123.5,224.5 123.5,224.5 C123.5,224.5 105.5,224.5 105.5,224.5 C105.5,224.5 105.5,165.5 105.5,165.5 zM67.5,176.5 C67.5,176.5 85.5,176.5 85.5,176.5 C85.5,176.5 85.5,227.5 85.5,227.5 C85.5,227.5 52.5,227.5 52.5,227.5 C52.5,227.5 52.5,263.5 52.5,263.5 C52.5,263.5 34.5,263.5 34.5,263.5 C34.5,263.5 34.5,209.5 34.5,209.5 C34.5,209.5 67.5,209.5 67.5,209.5 C67.5,209.5 67.5,176.5 67.5,176.5 zM139.5,201.5 C139.5,201.5 157.5,201.5 157.5,201.5 C157.5,201.5 157.5,236.5 157.5,236.5 C157.5,236.5 190.5,236.5 190.5,236.5 C190.5,236.5 190.5,289.5 190.5,289.5 C190.5,289.5 172.5,289.5 172.5,289.5 C172.5,289.5 172.5,254.5 172.5,254.5 C172.5,254.5 139.5,254.5 139.5,254.5 C139.5,254.5 139.5,201.5 139.5,201.5 zM175.5,204.5 C175.5,204.5 227.5,204.5 227.5,204.5 C227.5,204.5 227.5,243.5 227.5,243.5 C227.5,243.5 262.5,243.5 262.5,243.5 C262.5,243.5 262.5,261.5 262.5,261.5 C262.5,261.5 208.5,261.5 208.5,261.5 C208.5,261.5 208.5,221.5 208.5,221.5 C208.5,221.5 175.5,221.5 175.5,221.5 C175.5,221.5 175.5,204.5 175.5,204.5 zM70.5,244.5 C70.5,244.5 122.5,244.5 122.5,244.5 C122.5,244.5 122.5,277.5 122.5,277.5 C122.5,277.5 158.5,277.5 158.5,277.5 C158.5,277.5 158.5,294.5 158.5,294.5 C158.5,294.5 104.5,294.5 104.5,294.5 C104.5,294.5 104.5,262.5 104.5,262.5 C104.5,262.5 70.5,262.5 70.5,262.5 C70.5,262.5 70.5,244.5 70.5,244.5 z"
          class=""/>
    <path id="Selection" fill="#ff6f17" stroke="#ffffff" stroke-width="0"
          d="M138.5,0.5 C138.5,0.5 191.5,0.5 191.5,0.5 C191.5,0.5 191.5,33.5 191.5,33.5 C191.5,33.5 225.5,33.5 225.5,33.5 C225.5,33.5 225.5,51.5 225.5,51.5 C225.5,51.5 173.5,51.5 173.5,51.5 C173.5,51.5 173.5,18.5 173.5,18.5 C173.5,18.5 138.5,18.5 138.5,18.5 C138.5,18.5 138.5,0.5 138.5,0.5 zM105.5,6.5 C105.5,6.5 122.5,6.5 122.5,6.5 C122.5,6.5 122.5,40.5 122.5,40.5 C122.5,40.5 156.5,40.5 156.5,40.5 C156.5,40.5 156.5,94.5 156.5,94.5 C156.5,94.5 138.5,94.5 138.5,94.5 C138.5,94.5 138.5,57.5 138.5,57.5 C138.5,57.5 105.5,57.5 105.5,57.5 C105.5,57.5 105.5,6.5 105.5,6.5 zM33.5,33.5 C33.5,33.5 86.5,33.5 86.5,33.5 C86.5,33.5 86.5,76.5 86.5,76.5 C86.5,76.5 120.5,76.5 120.5,76.5 C120.5,76.5 120.5,91.5 120.5,91.5 C120.5,91.5 68.5,91.5 68.5,91.5 C68.5,91.5 68.5,51.5 68.5,51.5 C68.5,51.5 33.5,51.5 33.5,51.5 C33.5,51.5 33.5,33.5 33.5,33.5 zM243.5,33.5 C243.5,33.5 261.5,33.5 261.5,33.5 C261.5,33.5 261.5,86.5 261.5,86.5 C261.5,86.5 227.5,86.5 227.5,86.5 C227.5,86.5 227.5,120.5 227.5,120.5 C227.5,120.5 209.5,120.5 209.5,120.5 C209.5,120.5 209.5,68.5 209.5,68.5 C209.5,68.5 243.5,68.5 243.5,68.5 C243.5,68.5 243.5,33.5 243.5,33.5 zM35.5,70.5 C35.5,70.5 51.5,70.5 51.5,70.5 C51.5,70.5 51.5,122.5 51.5,122.5 C51.5,122.5 18.5,122.5 18.5,122.5 C18.5,122.5 18.5,157.5 18.5,157.5 C18.5,157.5 0.5,157.5 0.5,157.5 C0.5,157.5 0.5,104.5 0.5,104.5 C0.5,104.5 35.5,104.5 35.5,104.5 C35.5,104.5 35.5,70.5 35.5,70.5 zM172.5,70.5 C172.5,70.5 190.5,70.5 190.5,70.5 C190.5,70.5 190.5,124.5 190.5,124.5 C190.5,124.5 157.5,124.5 157.5,124.5 C157.5,124.5 157.5,147.5 157.5,147.5 C157.5,147.5 139.5,147.5 139.5,147.5 C139.5,147.5 139.5,106.5 139.5,106.5 C139.5,106.5 172.5,106.5 172.5,106.5 C172.5,106.5 172.5,70.5 172.5,70.5 zM242.5,104.5 C242.5,104.5 288.5,104.5 288.5,104.5 C288.5,104.5 288.5,123.5 288.5,123.5 C288.5,123.5 259.5,123.5 259.5,123.5 C259.5,123.5 259.5,155.5 259.5,155.5 C259.5,155.5 201.5,155.5 201.5,155.5 C201.5,155.5 201.5,137.5 201.5,137.5 C201.5,137.5 242.5,137.5 242.5,137.5 C242.5,137.5 242.5,104.5 242.5,104.5 zM71.5,106.5 C71.5,106.5 125.5,106.5 125.5,106.5 C125.5,106.5 125.5,146.5 125.5,146.5 C125.5,146.5 107.5,146.5 107.5,146.5 C107.5,146.5 107.5,122.5 107.5,122.5 C107.5,122.5 71.5,122.5 71.5,122.5 C71.5,122.5 71.5,106.5 71.5,106.5 zM276.5,138.5 C276.5,138.5 294.5,138.5 294.5,138.5 C294.5,138.5 294.5,191.5 294.5,191.5 C294.5,191.5 261.5,191.5 261.5,191.5 C261.5,191.5 261.5,225.5 261.5,225.5 C261.5,225.5 243.5,225.5 243.5,225.5 C243.5,225.5 243.5,173.5 243.5,173.5 C243.5,173.5 276.5,173.5 276.5,173.5 C276.5,173.5 276.5,138.5 276.5,138.5 zM35.5,139.5 C35.5,139.5 92.5,139.5 92.5,139.5 C92.5,139.5 92.5,158.5 92.5,158.5 C92.5,158.5 54.5,158.5 54.5,158.5 C54.5,158.5 54.5,190.5 54.5,190.5 C54.5,190.5 7.5,190.5 7.5,190.5 C7.5,190.5 7.5,173.5 7.5,173.5 C7.5,173.5 35.5,173.5 35.5,173.5 C35.5,173.5 35.5,139.5 35.5,139.5 zM172.5,147.5 C172.5,147.5 187.5,147.5 187.5,147.5 C187.5,147.5 187.5,171.5 187.5,171.5 C187.5,171.5 224.5,171.5 224.5,171.5 C224.5,171.5 224.5,188.5 224.5,188.5 C224.5,188.5 172.5,188.5 172.5,188.5 C172.5,188.5 172.5,147.5 172.5,147.5 zM105.5,165.5 C105.5,165.5 155.5,165.5 155.5,165.5 C155.5,165.5 155.5,183.5 155.5,183.5 C155.5,183.5 123.5,183.5 123.5,183.5 C123.5,183.5 123.5,224.5 123.5,224.5 C123.5,224.5 105.5,224.5 105.5,224.5 C105.5,224.5 105.5,165.5 105.5,165.5 zM67.5,176.5 C67.5,176.5 85.5,176.5 85.5,176.5 C85.5,176.5 85.5,227.5 85.5,227.5 C85.5,227.5 52.5,227.5 52.5,227.5 C52.5,227.5 52.5,263.5 52.5,263.5 C52.5,263.5 34.5,263.5 34.5,263.5 C34.5,263.5 34.5,209.5 34.5,209.5 C34.5,209.5 67.5,209.5 67.5,209.5 C67.5,209.5 67.5,176.5 67.5,176.5 zM139.5,201.5 C139.5,201.5 157.5,201.5 157.5,201.5 C157.5,201.5 157.5,236.5 157.5,236.5 C157.5,236.5 190.5,236.5 190.5,236.5 C190.5,236.5 190.5,289.5 190.5,289.5 C190.5,289.5 172.5,289.5 172.5,289.5 C172.5,289.5 172.5,254.5 172.5,254.5 C172.5,254.5 139.5,254.5 139.5,254.5 C139.5,254.5 139.5,201.5 139.5,201.5 zM175.5,204.5 C175.5,204.5 227.5,204.5 227.5,204.5 C227.5,204.5 227.5,243.5 227.5,243.5 C227.5,243.5 262.5,243.5 262.5,243.5 C262.5,243.5 262.5,261.5 262.5,261.5 C262.5,261.5 208.5,261.5 208.5,261.5 C208.5,261.5 208.5,221.5 208.5,221.5 C208.5,221.5 175.5,221.5 175.5,221.5 C175.5,221.5 175.5,204.5 175.5,204.5 zM70.5,244.5 C70.5,244.5 122.5,244.5 122.5,244.5 C122.5,244.5 122.5,277.5 122.5,277.5 C122.5,277.5 158.5,277.5 158.5,277.5 C158.5,277.5 158.5,294.5 158.5,294.5 C158.5,294.5 104.5,294.5 104.5,294.5 C104.5,294.5 104.5,262.5 104.5,262.5 C104.5,262.5 70.5,262.5 70.5,262.5 C70.5,262.5 70.5,244.5 70.5,244.5 z"
          class="" fill-opacity="1" stroke-opacity="0" opacity="1"/>
  </g>
</svg>
