<?xml version="1.0" encoding="UTF-8" standalone="no"?>
<svg
  width="751.43549"
  height="171.7692"
  version="1.1"
  id="svg8"
  sodipodi:docname="Quizzer.svg"
  inkscape:version="1.1.1 (3bf5ae0d25, 2021-09-20)"
  xmlns:inkscape="http://www.inkscape.org/namespaces/inkscape"
  xmlns:sodipodi="http://sodipodi.sourceforge.net/DTD/sodipodi-0.dtd"
  xmlns="http://www.w3.org/2000/svg"
>
  <defs
    id="defs12"/>
  <sodipodi:namedview
    id="namedview10"
    pagecolor="#505050"
    bordercolor="#eeeeee"
    borderopacity="1"
    inkscape:pageshadow="0"
    inkscape:pageopacity="0"
    inkscape:pagecheckerboard="0"
    showgrid="false"
    fit-margin-top="0.2"
    fit-margin-bottom="0.2"
    fit-margin-left="0.2"
    fit-margin-right="0.2"
    inkscape:zoom="1.118665"
    inkscape:cx="337.00884"
    inkscape:cy="60.339779"
    inkscape:window-width="1920"
    inkscape:window-height="998"
    inkscape:window-x="-9"
    inkscape:window-y="-9"
    inkscape:window-maximized="1"
    inkscape:current-layer="svg8"/>
  <rect
    id="backgroundrect"
    width="100%"
    height="100%"
    x="-141.33595"
    y="-556.01434"
    fill="none"
    stroke="none"/>
  <g
    class="currentLayer"
    id="g6"
    transform="translate(-141.33595,-556.01435)">
    <title
      id="title3">Layer 1</title>
    <path
      id="Selection"
      fill="#000000"
      stroke="#ffffff"
      stroke-width="0"
      d="m 190.57143,557.01143 c 24.92,-3.2 48.86,2.89 63.78,24.56 10.24,14.87 10.42,28.86 10.22,46 -0.33,27.91 -21.53,52.19 -49,56.56 -23.68,3.77 -46.14,-2.04 -61.48,-21.56 -12.31,-15.65 -12.74,-30.21 -12.52,-49 0.13,-10.97 4.47,-24.04 10.78,-33 9.43,-13.38 22.38,-20.6 38.22,-23.56 z m 93,0.56 c 0,0 33,0 33,0 -2.49,4.1 -5.07,4.77 -6.89,10 -0.9,2.58 -2.07,15.84 -2.11,19 0,0 0,42 0,42 0,0 0.91,10 0.91,10 0.71,10.35 0.84,18.75 6.56,28 10.62,17.21 36.02,18.84 50.52,5.82 6.7,-6.03 10.45,-13.31 12.97,-21.82 3.56,-11.95 3.04,-24.68 3.04,-37 0,-13.09 1.48,-36.99 -5.48,-47.96 -2.46,-3.88 -5.17,-5.21 -8.52,-8.04 0,0 31,0 31,0 0,0 0,2 0,2 -9.73,2.42 -12.76,11.91 -12.99,21 0,0 -1.01,18 -1.01,18 0,0 0,38 0,38 -0.02,14.01 -5,30.35 -16.01,39.67 -10.65,9.01 -20.1,8.48 -32.99,8.33 -12.47,-0.15 -26.77,-5.65 -34.21,-16 -9.36,-13.01 -8.79,-24.98 -8.79,-40 0,0 0,-39 0,-39 -0.05,-4.12 -1.24,-20.88 -2.65,-24 -1.43,-3.15 -4.13,-5.42 -6.35,-8 z m 190,0 c 0,0 86,0 86,0 -2.59,7 -14.35,24.66 -18.95,32 0,0 -35.47,57 -35.47,57 -5.4,8.66 -16.82,24.63 -18.58,34 21.55,0 46.3,3.61 61.67,-15 6.92,-8.38 6.81,-14.27 10.33,-21 0,0 -2,39 -2,39 0,0 -92,0 -92,0 0,0 7.95,-15 7.95,-15 0,0 15,-24 15,-24 0,0 31.1,-50 31.1,-50 0,0 20.95,-34 20.95,-34 -18.16,0 -43.35,-2.97 -56.53,12.09 -7.68,8.76 -8.34,18.13 -12.47,23.91 0,0 3,-39 3,-39 z m 109,0 c 0,0 86,0 86,0 -2.59,7 -14.35,24.66 -18.95,32 0,0 -35.47,57 -35.47,57 -5.4,8.66 -16.82,24.63 -18.58,34 21.55,0 46.3,3.61 61.67,-15 6.92,-8.38 6.81,-14.27 10.33,-21 0,0 -2,39 -2,39 0,0 -92,0 -92,0 0,0 7.95,-15 7.95,-15 0,0 15,-24 15,-24 0,0 31.1,-50 31.1,-50 0,0 20.95,-34 20.95,-34 -18.16,0 -43.35,-2.97 -56.53,12.09 -7.68,8.76 -8.34,18.13 -12.47,23.91 0,0 3,-39 3,-39 z m 105,0 c 0,0 81,0 81,0 0,0 0.96,11 0.96,11 0,0 0,12 0,12 0,0 1.04,12 1.04,12 -3.45,-2.37 -3.36,-5.25 -4.7,-9 -1.58,-4.43 -4.44,-10.47 -7.51,-13.98 -8.37,-9.58 -17.33,-9.02 -28.79,-9.02 0,0 -18,0 -18,0 0,0 0,56 0,56 0,0 24,-0.91 24,-0.91 5.38,-0.4 9.25,-0.2 13.91,-3.74 4.07,-3.1 5.23,-7.42 8.09,-11.35 0,0 0,37 0,37 0,0 -2,0 -2,0 -2.3,-12.66 -9.48,-17.94 -22,-18 0,0 -22,0 -22,0 0,0 0,61 0,61 0,0 19,0 19,0 14.02,0 22.53,0.15 32.91,-11 3.61,-3.89 5.58,-7.16 7.66,-12 1.58,-3.65 2.23,-7.55 5.43,-10 0,0 -4,36 -4,36 0,0 -58,0 -58,0 0,0 -27,-1 -27,-1 8.98,-7.02 7.4,-11 8.09,-21 0,0 0.91,-12 0.91,-12 0,0 0,-58 0,-58 0,0 -0.91,-12 -0.91,-12 -0.76,-11.1 1.02,-13.76 -8.09,-22 z m 106,0 c 0,0 44,0.83 44,0.83 10.05,0.97 17.22,1.28 26,7.39 21.27,14.8 16.3,49.55 -9,56.78 1.89,5.99 9.39,16.99 13,23 7.62,12.71 15.02,27.11 25,38 0,0 -14,0 -14,0 -1.63,-0.01 -4.2,0.08 -5.67,-0.57 -3.15,-1.4 -7.34,-10.2 -9.1,-13.43 0,0 -16.37,-29 -16.37,-29 -7.69,-13.77 -6.34,-13.98 -15.86,-14 0,0 -14,0 -14,0 0,0 0.83,35 0.83,35 0.52,5.43 -0.2,9.76 2.61,14.98 1.66,3.1 4.01,4.76 6.56,7.02 0,0 -22,0 -22,0 0,0 -12,-1 -12,-1 9.23,-7.17 7.39,-10.75 8.09,-21 0,0 0.91,-12 0.91,-12 0,0 0,-59 0,-59 -0.02,-3.39 -1.23,-20.48 -2.11,-23 -1.84,-5.28 -4.17,-5.96 -6.89,-10 z m -598,2.15 c -25.38,4.95 -36.96,30.09 -37,53.85 0,0 0,16 0,16 0.08,6.88 1.71,14.54 4.05,21 5.97,16.42 18.23,30.77 36.95,31 0,0 7,0 7,0 26.91,-0.33 40.96,-30.5 41,-54 0,0 0,-14 0,-14 -0.03,-20.42 -9.37,-44.49 -30,-51.91 -4.86,-1.75 -7.91,-2.07 -13,-1.94 0,0 -9,0 -9,0 z m 217,-1.15 c 6.56,0 28.24,-0.89 33,1 -8.92,6.93 -7.23,9.19 -8.17,19 0,0 -0.83,11 -0.83,11 0,0 0,66 0,66 0,0 0.83,9 0.83,9 0.99,10.23 -0.06,11.56 8.17,19 -6.56,0 -28.24,0.89 -33,-1 9.23,-7.17 7.39,-10.75 8.09,-21 0,0 0.91,-12 0.91,-12 0,0 0,-58 0,-58 0,0 -0.91,-12 -0.91,-12 -0.75,-10.97 0.94,-12.84 -8.09,-21 z m 405,65 c 10.16,0 22.37,1.58 31,-4.64 10.71,-7.71 11.14,-17.49 11,-29.36 -0.11,-9.1 -2.64,-16.78 -10,-22.61 -7.85,-6.23 -22.24,-6.39 -32,-6.39 0,0 0,63 0,63 z m -621,72 c 7.11,-14.15 27.03,-2.51 36,3.34 16.32,10.66 22.85,15.9 43,15.66 5.14,-0.07 9.47,-0.94 14,-3.53 6.4,-3.66 7.65,-7.31 12,-12.47 -0.02,5.83 -0.25,9.64 -2.99,15 -1.51,2.93 -3.62,5.6 -6.05,7.81 -6.6,6.02 -12.58,6.28 -20.96,6.19 -16.96,-0.2 -28.86,-12.98 -41,-23.08 -4.39,-3.65 -8.78,-7.18 -14,-9.6 -8.72,-4.04 -11.76,-2.26 -20,0.68 z"
      class="selected"
      fill-opacity="1"
      stroke-opacity="0"
      opacity="1"/>
  </g>
</svg>
